**ABCDEFGHIJKLMNOPQRSTUVWXYZabcdefghijklmnopqrstuvwxyz**************************
**PARASOLID !"#$%&'()*+,-./:;<=>?@[\]^_`{|}~0123456789**************************
**PART1;
MC=unknown;
MC_MODEL=unknown;
MC_ID=unknown;
OS=unknown;
OS_RELEASE=unknown;
FRU=sdl_parasolid_customer_support;
APPL=parasolid_acceptance_tests;
SITE=unknown;
USER=unknown;
FORMAT=text;
GUISE=transmit;
KEY=/users/ychen/NGC/3D/ContraStraight/correct_geometry/geom_smf_3.x_t;
FILE=/users/ychen/NGC/3D/ContraStraight/correct_geometry/geom_smf_3.x_t;
DATE=unknown;
**PART2;
SCH=SCH_1900172_19008;
USFLD_SIZE=1;
**PART3;
**END_OF_HEADER*****************************************************************
T51 : TRANSMIT FILE created by modeller version 190017223 SCH_1900172_19008_1300
6186 1 12 27 CCCCCCCCCCCCCCCCCCCCCCCA16 index_map_offset0 0 1 dA9 index_map82 0
 A17 node_id_index_map82 0 A20 schema_embedding_map82 0 Z1 1850 2 3 0 0 0 0 1e3
 1e-8 0 4 0 1 0 1 1 5 6 7 8 9 10 11 0 0 0 0 0 81 255 2 2 1784 12 1 13 0 0 0 14 1
5 0 70 11 CI9 list_type0 0 1 uI10 notransmit0 0 1 lCCCDCCDI12 finger_index0 0 1
 dI12 finger_block1012 0 CZ3 0 4 T1 0 0 4 20 1 16 16 0 13 255 5 1443 0 1 0 17 0
 0 18 0 0 124 255 6 791 0 19 20 0 0 +21 22 0 137 255 7 1769 0 1 23 0 24 +25 26 0
 ?0 29 255 8 994 0 27 28 0 -1.8796 .58737500000145 -.587374999999977 0 19 255 9
 1479 0 1 18 0 29 V0 16 255 10 700 0 ?30 0 31 32 0 0 1 0 18 255 11 758 0 33 0 27
 28 ?1 0 17 255 33 0 34 35 36 11 37 38 0 39 -0 18 27 759 0 36 11 40 8 ?1 0 29 28
 995 0 11 41 8 -1.8796 -.58737499999855 -.587375000000029 0 29 41 997 0 40 42 28
 -.0508000000000012 -.0444499999991833 -.0571500000000018 0 18 40 761 0 43 27 44
 41 508393580363985e-21 1 0 29 42 998 0 45 46 41 -1.87960000000008 .587375000001
424 .587374999999764 0 18 45 765 0 47 44 48 42 ?1 0 29 46 999 0 44 49 42 -1.8796
0000000008 -.587374999998577 .587374999999764 0 18 44 764 0 35 40 45 46 ?1 0 29
 49 1718 0 50 51 46 -.0508000000000016 -.044450000000002 -975358682708815e-30 0
 18 50 1668 0 52 53 54 49 50839357636901e-20 1 0 29 51 1719 0 54 55 49 -.0508000
000000076 -.04445 .0571499999999974 0 18 54 1666 0 56 50 57 51 508393580363985e-
21 1 0 29 55 1720 0 57 58 51 -.0508000000000013 .04445000000142455 .057150000000
0015 0 18 57 1663 0 59 54 60 55 50839358037981e-20 1 0 29 58 1721 0 60 61 55 -.0
508000000000013 .04445000000142455 -975358682708815e-30 0 18 60 1665 0 62 57 63
 58 508393576367682e-21 1 0 29 61 1722 0 63 64 58 -.0508 .04445000000000255 -.05
71499999999939 0 18 63 1674 0 65 60 0 61 50839358037981e-20 1 0 29 64 1724 0 48
 66 61 .1491999999999986 -.0444500000000019 -975358682708815e-30 0 18 48 1672 0
 67 45 68 64 ?1 0 29 66 1725 0 68 69 64 .1491999999999926 -.04445 .0571499999999
974 0 18 68 1671 0 70 48 71 66 ?1 0 29 69 1726 0 71 72 66 .1491999999999986 .044
45000000142455 .0571500000000015 0 18 71 1670 0 73 68 74 69 ?1 0 29 72 1727 0 74
 75 69 .1491999999999986 .04445000000142455 -975358682708815e-30 0 18 74 1669 0
 76 71 77 72 ?1 0 29 75 1728 0 77 78 72 .1492 .04445000000000255 -.0571499999999
939 0 18 77 1664 0 79 74 53 75 ?1 0 29 78 1729 0 53 0 75 .1492 -.044449999999997
3 -.0571499999999979 0 18 53 1673 0 80 77 50 78 ?1 0 17 80 0 81 82 67 53 83 84 0
 85 +0 15 255 81 1691 0 82 86 0 0 17 82 0 81 76 80 77 87 88 0 89 +0 17 67 0 81 8
0 70 48 90 91 0 83 +0 17 83 0 92 90 85 48 80 84 0 0 -0 16 84 1661 0 ?80 93 91 94
 0 0 1 0 17 85 0 92 83 95 53 43 93 0 87 -0 15 92 1688 0 95 96 0 0 17 95 0 92 85
 52 40 97 98 23 99 +0 17 43 0 100 101 87 40 85 93 0 95 +0 16 93 1640 0 ?43 102 8
4 103 0 0 1 0 17 87 0 100 43 89 53 82 88 0 0 -0 15 100 1677 0 101 104 0 0 17 89
 0 100 87 101 77 65 105 0 0 -0 16 88 1653 0 ?82 106 0 107 0 0 1 0 16 106 1654 0
 ?76 108 88 109 0 0 1 0 30 255 107 1717 0 88 0 109 0 +.1492 -.0444499999999973 -
.0571499999999979 -3701396336647365e-31 1 4394372629808515e-29 0 134 255 109 171
6 0 106 107 110 0 +111 112 0 134 110 1715 0 108 109 113 0 +114 115 0 136 255 111
 1 2 3 2 5 FFF1 116 117 118 0 135 255 112 1 0 0 45 255 6 116 .1491999999999986 .
04445000000142455 -.057150000000001 .1491999999999986 .04445000000142455 -975358
682708815e-30 0 127 255 2 117 2 2 0 128 255 2 118 0 1 0 16 108 1656 0 ?73 119 10
6 110 0 0 1 0 30 113 1714 0 119 110 120 0 +.1491999999999924 .04445 .05714999999
99975 3701396336647365e-31 -1 -624422398551832e-30 0 136 114 1 2 3 2 5 FFF1 121
 122 123 0 135 115 1 0 0 45 6 121 .1491999999999986 .04445000000142455 -97535868
2708815e-30 .1491999999999986 .04445000000142455 .0571500000000015 0 127 2 122 2
 2 0 128 2 123 0 1 0 16 119 1658 0 ?70 91 108 113 0 0 1 0 134 120 1713 0 91 113
 94 0 +124 125 0 16 91 1659 0 ?67 84 119 120 0 0 1 0 134 94 1712 0 84 120 126 0
 +127 128 0 136 124 1 2 3 2 5 FFF1 129 130 131 0 135 125 1 0 0 45 6 129 .1491999
999999986 -.0444500000000019 .0571500000000041 .1491999999999986 -.0444500000000
019 -975358682708815e-30 0 127 2 130 2 2 0 128 2 131 0 1 0 133 255 126 949 0 132
 94 133 0 +133 -1.87960000000008 -.587374999998577 .587374999999764 -.0508000000
000089 -.0444499999985755 .0571500000000041 0 1 0 136 127 1 2 3 2 5 FFF1 134 135
 136 0 135 128 1 0 0 45 6 134 .1491999999999986 -.0444500000000019 -975358682708
815e-30 .1491999999999986 -.0444500000000019 -.0571500000000018 0 127 2 135 2 2
 0 128 2 136 0 1 0 16 132 708 0 ?137 98 138 126 0 0 1 0 134 133 948 0 1 126 139
 140 +141 142 0 30 139 947 0 138 133 143 0 +-1.87960000000008 14235695955378e-25
 .587374999999763 -33024099371727e-29 1 535668022108989e-30 0 141 255 140 126 14
0 140 133 0 136 141 5 48 3 44 6 FFF1 144 145 146 0 135 142 2 0 0 45 144 144 -1.8
7960000000008 -.587374999998577 .587374999999764 -1.868284197370555 -.5873705613
4033 .587367682167202 -1.84565154322624 -.587378720609563 .587370206317487 -1.81
712544558229 -.58727727440488 .587265088979512 -1.776936213259025 -.586795834610
086 .586787788592901 -1.730883683723845 -.58508842196437 .585112907120692 -1.690
741347930165 -.582538812946366 .582616939309643 -1.65052530224686 -.578954576381
903 .579110793623444 -1.610466861196035 -.573975792389265 .574242915148448 -1.57
6099597002555 -.568650010791855 .569037115314828 -1.535890585388425 -.5611294676
98993 .561687343432155 -1.4959373106051 -.552038426726235 .552804170317792 -1.46
1613218003812 -.543080767445909 .544052199810126 -1.427412651996064 -.5330240094
14796 .53422715107457 -1.387398487826024 -.519948690221928 .52145393085174 -1.35
3008390199834 -.507606446146473 .509397519322121 -1.312775060193794 -.4919540252
78892 .494108312073227 -1.272836132626228 -.475023703978966 .477571683285567 -1.
233131134527704 -.456980514163088 .459948808896177 -1.193106944122792 -.43787397
2197384 .441287942974442 -1.153294003663082 -.417886453980308 .4217673360951935
 -1.11908184054254 -.400122181878389 .404418499499738 -1.073345265602052 -.37573
682953269 .3806040135419515 -1.016383193638516 -.344504279747362 .35010363386202
5 -.95962003407343 -.3128184781036345 .3191616957488045 -.897313550588914 -.2780
324719902585 .2851935993386415 -.834591279874583 -.2439053356421255 .25187014293
3824 -.782959744434386 -.216915023739323 .225516241789485 -.737276936349629 -.19
39779900179325 .2031205297907185 -.697248242218263 -.174868977717188 .1844629188
266385 -.663007296930645 -.15930808407067 .1692698913371345 -.62317935147927 -.1
422297024404698 .1525955687112035 -.583082396660677 -.1263983421986892 .13713913
14212186 -.543349132447275 -.1118890314993426 .122973731494091 -.503356093631713
 -.0987790507536997 .11017483964527 -.463062675611236 -.0871947846846688 .098865
8062693699 -.428635544489462 -.078439459153988 .0903187533569581 -.3885662101226
85 -.0696031923043112 .0816929889573885 -.354308040022554 -.0631931738549443 .07
54359479094655 -.31993818545614 -.0578653414631618 .0702355676969456 -.279892767
6406835 -.05288537573233 .0653751236145331 -.234023303229936 -.0487947832561379
 .0613833247566108 -.193843885964246 -.0464406685974118 .0590867247924722 -.1478
030605352814 -.0449221285047615 .0576062492425958 -.1076134336551032 -.044538577
5961042 .0572336854389352 -.0791490238077481 -.0444362310430741 .057135151420275
2 -.0621093634538853 -.04447190933287075 .0571708241942962 -.0508000000000089 -.
0444499999985755 .0571500000000041 0 127 44 145 6 1 1 1 1 1 1 1 1 1 1 1 1 1 1 1
 1 1 1 1 1 1 1 1 1 1 1 1 1 1 1 1 1 1 1 1 1 1 1 1 1 1 1 6 0 128 44 146 0 .0283224
314460391 .0563067839310476 .0702672212504179 .0982719505355781 .112369762506234
8 .1265626994846806 .1553094987946525 .169900327744743 .184658716004962 .2147230
338582445 .2300504577225915 .2455862866558015 .261332697472228 .2934576657579445
 .309833326436095 .343175471990701 .3601214055585635 .377234112727982 .411889752
323691 .4293940369539125 .446988332894073 .500076014394818 .553122010316972 .588
159526339897 .622747893719456 .639830243743563 .656750220195756 .690057846838567
 .70642589116436 .722591901899385 .754308268807434 .769858595657911 .80035270224
3245 .815312486902727 .830094382674432 .844709029098288 .873498172159928 .887710
020472533 .901823177253102 .92984009934775 .957751894787258 .971742401906696 1 0
 16 138 709 0 ?147 132 148 139 0 0 1 0 133 143 946 0 148 139 149 0 +149 -1.87960
000000008 .587375000001424 .587374999999764 -.0508000000000088 .0444500000014245
5 .0571500000000041 0 1 0 16 148 710 0 ?150 138 151 143 0 0 1 0 134 149 945 0 1
 143 152 153 +154 155 0 133 152 944 0 151 149 156 0 +156 -.0508000000000079 .044
45 .0571499999999975 -.0508000000000076 -.04445 .0571499999999974 .1016 .0127 0
 141 153 143 153 153 149 0 136 154 5 48 3 44 6 FFF1 157 158 159 0 135 155 2 0 0
 45 144 157 -1.87960000000008 .587375000001424 .587374999999764 -1.8682841973705
5 .587370561343173 .587367682167193 -1.84565154322628 .587378720612416 .58737020
6317498 -1.817125445582365 .587277274407722 .587265088979501 -1.776936213259235
 .58679583461294 .58678778859291 -1.730883683724005 .585088421967213 .5851129071
20688 -1.69074134793024 .582538812949215 .582616939309645 -1.65052530224684 .578
954576384748 .579110793623443 -1.610466861196 .573975792392114 .574242915148447
 -1.576099597002525 .568650010794702 .569037115314831 -1.53589058538841 .5611294
67701841 .561687343432153 -1.495937310605094 .552038426729082 .552804170317793 -
1.461613218003812 .543080767448758 .544052199810126 -1.427412651996066 .53302400
9417642 .534227151074571 -1.38739848782602 .519948690224777 .521453930851741 -1.
35300839019985 .507606446149319 .50939751932212 -1.312775060193832 .491954025281
743 .494108312073229 -1.27283613262641 .475023703981811 .477571683285567 -1.2331
31134527926 .456980514165938 .459948808896179 -1.193106944122884 .43787397220022
9 .441287942974443 -1.153294003662632 .417886453983157 .4217673360951935 -1.1190
81840541614 .4001221818812375 .404418499499739 -1.073345265600762 .3757368295355
38 .380604013541952 -1.016383193637832 .3445042797502085 .350103633862026 -.9596
2003407383 .312818478106485 .319161695748805 -.897313550589086 .278032471993104
 .285193599338642 -.834591279874616 .2439053356449755 .2518701429338245 -.782959
744434375 .2169150237421705 .2255162417894855 -.73727693634964 .193977990020783
 .203120529790718 -.697248242218256 .1748689777200355 .184462918826639 -.6630072
96930648 .15930808407352 .169269891337134 -.623179351479271 .142229702443318 .15
25955687112045 -.583082396660674 .1263983422015378 .1371391314212182 -.543349132
447279 .1118890315021914 .122973731494092 -.503356093631708 .0987790507565486 .1
10174839645269 -.463062675611241 .0871947846875178 .0988658062693708 -.428635544
4894575 .0784394591568365 .0903187533569578 -.388566210122689 .0696031923071603
 .0816929889573888 -.354308040022549 .0631931738577923 .0754359479094654 -.31993
8185456143 .0578653414660114 .0702355676969457 -.2798927676406805 .0528853757351
781 .0653751236145333 -.23402330322993 .0487947832589883 .0613833247566107 -.193
8438859644245 .046440668600259 .0590867247924726 -.1478030605362322 .04492212850
76138 .0576062492425954 -.1076134336575774 .0445385775989491 .0572336854389356 -
.0791490238092818 .04443623104592895 .0571351514202749 -.0621093634551422 .04447
190933571275 .057170824194297 -.0508000000000088 .04445000000142455 .05715000000
00041 0 127 44 158 6 1 1 1 1 1 1 1 1 1 1 1 1 1 1 1 1 1 1 1 1 1 1 1 1 1 1 1 1 1 1
 1 1 1 1 1 1 1 1 1 1 1 1 6 0 128 44 159 0 .0283224314460391 .0563067839310476 .0
702672212504179 .0982719505355781 .1123697625062348 .1265626994846806 .155309498
7946525 .169900327744743 .184658716004962 .2147230338582445 .2300504577225915 .2
455862866558015 .261332697472228 .2934576657579445 .309833326436095 .34317547199
0701 .3601214055585635 .377234112727982 .411889752323691 .4293940369539125 .4469
88332894073 .500076014394818 .553122010316972 .588159526339897 .622747893719456
 .639830243743563 .656750220195756 .690057846838567 .70642589116436 .72259190189
9385 .754308268807434 .769858595657911 .800352702243245 .815312486902727 .830094
382674432 .844709029098288 .873498172159928 .887710020472533 .901823177253102 .9
2984009934775 .957751894787258 .971742401906696 1 0 16 151 711 0 ?56 148 160 152
 0 0 1 0 30 156 943 0 1 152 161 162 --.0508000000000075 -.05715 .057149999999997
4 -1602385165880165e-31 1 535668022108989e-30 0 133 161 942 0 163 156 164 0 +164
 -.0508000000000013 .04445000000142455 -1000611609948754e-30 -.0508000000000013
 .04445000000142695 -.057150000000001 .5 1 0 141 162 152 162 162 156 0 17 163 0
 165 166 167 63 62 168 161 169 -0 137 164 941 0 1 161 170 171 +172 173 0 ?0 133
 170 940 0 97 164 174 0 +174 -.0508000000000014 -.0444499999985729 -.05715000000
00048 -.0508000000000014 -.0444499999985754 -488529893003416e-29 0 .5 0 141 171
 161 171 171 164 0 124 172 794 0 17 175 176 177 +178 179 0 134 173 0 0 0 0 0 0 +
180 181 0 136 180 1 2 2 2 5 FFF1 182 183 184 0 135 181 2 0 0 45 4 182 1 1 0 1 0
 127 2 183 2 2 0 128 2 184 0 1 0 14 255 17 446 185 ?19 0 165 5 172 +0 0 186 0 29
 0 124 175 795 0 187 188 172 0 -189 190 0 50 255 176 793 0 186 172 20 0 +-1.8796
 1423833273506148e-27 -3094201210041395e-30 1 33024099371727e-29 -88038213924917
7e-31 -880376921899417e-31 4385351090515665e-29 -1 0 141 177 164 191 191 172 0 1
26 255 178 FF1 5 2 48 5 6 2 44 FFF9 3 192 193 194 195 196 0 125 255 179 0 1 0 1
 0 1 0 1 2 BBBBBBBB????0 0 0 0 0 45 288 192 -1.8796 .58737500000145 -.5873749999
99977 -1.86828419737047 .5873705613432 -.587367682167405 -1.8456515432262 .58737
8720612441 -.587370206317707 -1.81712544558229 .587277274407749 -.58726508897970
6 -1.77693621325916 .586795834612965 -.58678778859311 -1.73088368372393 .5850884
21967239 -.585112907120881 -1.690741347930165 .582538812949242 -.582616939309833
 -1.650525302246765 .578954576384774 -.579110793623627 -1.610466861195925 .57397
579239214 -.574242915148626 -1.57609959700245 .568650010794728 -.569037115315005
 -1.535890585388335 .561129467701866 -.561687343432322 -1.495937310605024 .55203
8426729107 -.552804170317958 -1.461613218003738 .543080767448782 -.5440521998102
86 -1.427412651995996 .533024009417666 -.534227151074726 -1.38739848782595 .5199
486902248 -.521453930851892 -1.353008390199784 .507606446149341 -.50939751932226
8 -1.312775060193772 .491954025281764 -.494108312073371 -1.27283613262635 .47502
3703981832 -.477571683285705 -1.233131134527866 .456980514165959 -.4599488088963
13 -1.193106944122826 .4378739722002495 -.441287942974572 -1.153294003662576 .41
78864539831755 -.4217673360953185 -1.119081840541562 .4001221818812545 -.4044184
994998605 -1.073345265600712 .375736829535555 -.3806040135420685 -1.016383193637
786 .3445042797502245 -.3501036338621365 -.959620034073787 .3128184781064985 -.3
19161695748909 -.897313550589048 .278032471993117 -.285193599338739 -.8345912798
74582 .243905335644987 -.251870142933915 -.782959744434345 .21691502374218 -.225
516241789571 -.737276936349613 .193977990020792 -.2031205297907985 -.69724824221
8232 .1748689777200435 -.1844629188267155 -.663007296930626 .159308084073527 -.1
69269891337206 -.623179351479251 .142229702443325 -.152595568711272 -.5830823966
60656 .1263983422015438 -.1371391314212812 -.543349132447263 .111889031502197 -.
12297373149415 -.503356093631693 .0987790507565531 -.1101748396453226 -.46306267
5611228 .0871947846875223 -.0988658062694196 -.4286355444894455 .078439459156840
5 -.0903187533570025 -.388566210122678 .0696031923071639 -.0816929889574286 -.35
4308040022539 .0631931738577959 -.075435947909501 -.3199381854561345 .0578653414
660144 -.0702355676969769 -.2798927676406725 .0528853757351809 -.065375123614559
5 -.234023303229922 .048794783258991 -.061383324756631 -.1938438859644165 .04644
06686002615 -.0590867247924877 -.1478030605362242 .04492212850761645 -.057606249
2426046 -.10761343365757 .04453857759895155 -.0572336854389395 -.079149023809274
3 .04443623104593135 -.057135151420275 -.0621093634551347 .04447190933571535 -.0
571708241942949 -.0508000000000013 .04445000000142695 -.057150000000001 -1.8796
 .587375000001398 .587375000000023 -1.868284197370475 .587370561343133 .58736768
2167459 -1.845651543226165 .587378720612409 .587370206317743 -1.81712544558221 .
58727727440768 .587265088979759 -1.77693621325895 .586795834612926 .586787788593
151 -1.73088368372377 .585088421967182 .585112907120929 -1.69074134793009 .58253
8812949195 .58261693930988 -1.650525302246785 .578954576384719 .579110793623669
 -1.61046686119596 .573975792392092 .574242915148674 -1.57609959700248 .56865001
0794675 .569037115315045 -1.535890585388345 .561129467701818 .56168734343237 -1.
495937310605024 .552038426729057 .552804170317997 -1.461613218003738 .5430807674
48734 .54405219981033 -1.427412651995996 .533024009417618 .534227151074767 -1.38
739848782595 .519948690224754 .521453930851933 -1.35300839019977 .50760644614929
6 .509397519322305 -1.312775060193726 .49195402528172 .494108312073411 -1.272836
13262617 .47502370398179 .477571683285739 -1.233131134527642 .456980514165918 .4
59948808896348 -1.193106944122742 .4378739722002115 .441287942974603 -1.15329400
3663022 .4178864539831385 .4217673360953505 -1.11908184054249 .400122181881219 .
404418499499888 -1.073345265602 .3757368295355215 .3806040135420965 -1.016383193
638474 .3445042797501935 .350103633862159 -.959620034073388 .3128184781064705 .3
19161695748933 -.897313550588874 .278032471993092 .285193599338756 -.83459127987
4553 .243905335644964 .251870142933932 -.782959744434353 .216915023742161 .22551
6241789583 -.737276936349605 .1939779900207735 .20312052979081 -.697248242218238
 .174868977720028 .184462918826724 -.663007296930623 .159308084073513 .169269891
3372145 -.62317935147925 .142229702443311 .152595568711278 -.58308239666066 .126
3983422015328 .137139131421287 -.543349132447257 .1118890315021854 .122973731494
1536 -.503356093631698 .0987790507565441 .110174839645326 -.463062675611223 .087
1947846875133 .098865806269421 -.4286355444894495 .078439459156833 .090318753357
0039 -.388566210122674 .0696031923071564 .0816929889574287 -.354308040022542 .06
31931738577899 .0754359479095008 -.3199381854561335 .0578653414660079 .070235567
6969764 -.2798927676406705 .0528853757351755 .0653751236145578 -.234023303229933
 .0487947832589853 .0613833247566304 -.1938438859642365 .0464406686002568 .05908
67247924844 -.1478030605352748 .04492212850761055 .0576062492426053 -.1076134336
55098 .0445385775989479 .0572336854389343 -.0791490238077408 .04443623104592445
 .0571351514202774 -.0621093634538777 .0444719093357129 .0571708241942878 -.0508
000000000013 .04445000000142195 .0571499999999991 0 127 2 193 2 2 0 127 44 194 6
 1 1 1 1 1 1 1 1 1 1 1 1 1 1 1 1 1 1 1 1 1 1 1 1 1 1 1 1 1 1 1 1 1 1 1 1 1 1 1 1
 1 1 6 0 128 2 195 0 1 0 128 44 196 0 .0283224314460391 .0563067839310476 .07026
72212504179 .0982719505355781 .1123697625062348 .1265626994846806 .1553094987946
525 .169900327744743 .184658716004962 .2147230338582445 .2300504577225915 .24558
62866558015 .261332697472228 .2934576657579445 .309833326436095 .343175471990701
 .3601214055585635 .377234112727982 .411889752323691 .4293940369539125 .44698833
2894073 .500076014394818 .553122010316972 .588159526339897 .622747893719456 .639
830243743563 .656750220195756 .690057846838567 .70642589116436 .722591901899385
 .754308268807434 .769858595657911 .800352702243245 .815312486902727 .8300943826
74432 .844709029098288 .873498172159928 .887710020472533 .901823177253102 .92984
009934775 .957751894787258 .971742401906696 1 0 141 191 197 177 177 172 0 137 19
7 926 0 1 198 103 199 +172 200 0 ?0 133 198 927 0 167 201 197 0 +197 -.050800000
0000013 .04445000000142195 .0571499999999991 -.0508000000000013 .044450000001424
55 441866452900279e-29 0 1 0 133 103 1733 0 93 197 202 0 +202 .1492 -.0444499999
999973 -.0571499999999979 -.0508000000000011 -.0444499999999975 -.05714999999999
79 0 .2 0 141 199 198 199 199 197 0 134 200 0 0 0 0 0 0 +203 204 0 136 203 1 2 2
 2 5 FFF1 205 206 207 0 135 204 1 0 0 45 4 205 1 1 .500000000000047 1 0 127 2 20
6 2 2 0 128 2 207 0 1 0 30 202 1734 0 1 103 208 209 +.1492 -.0444499999999973 -.
0571499999999979 -1 -459911361788299e-30 0 0 133 208 1739 0 105 202 210 0 +210 .
1492 .04445000000000255 -.0571499999999939 -.0508 .04445000000000255 -.057149999
9999939 0 .2 0 141 209 103 209 209 202 0 16 105 1643 0 ?65 211 212 208 0 0 1 0 3
0 210 1740 0 1 208 213 214 +.1492 .04445000000000255 -.0571499999999939 -1 -4599
11361788299e-30 0 0 133 213 1743 0 62 210 215 0 +215 -.0508000000000013 .0444500
0000142455 -.057150000000001 -.0508000000000013 .04445000000142455 -975358682708
815e-30 0 1 0 141 214 208 214 214 210 0 17 62 0 216 59 65 60 163 168 213 167 +0
 137 215 1744 0 1 213 217 218 +219 220 0 ?0 133 217 1750 0 59 215 221 0 +221 -.0
508000000000013 .04445000000142455 -975358682708815e-30 -.0508000000000013 .0444
5000000142455 .0571500000000015 0 1 0 141 218 213 218 218 215 0 50 219 1697 0 22
2 223 188 224 +.1491999999999986 .04445000000142455 -975358682708815e-30 4599113
61788299e-30 -1 0 -1 -459911361788299e-30 0 0 134 220 0 0 0 0 0 0 +225 226 0 136
 225 1 2 2 2 5 FFF1 227 228 229 0 135 226 1 0 0 45 4 227 .2 .05715 .2 0 0 127 2
 228 2 2 0 128 2 229 0 1 0 14 222 1678 230 ?231 104 216 5 219 -0 0 231 104 29 0
 50 223 1698 0 231 25 219 0 +.1491999999999924 .04445 .0571499999999975 -2876437
49764858e-45 624422398551832e-30 -1 -.0020089592946889 .99999798203924 624421138
491934e-30 0 50 188 1696 0 104 219 175 0 +.1492 -.0444499999999973 -.05714999999
99979 202736626714568e-43 -4394372629808515e-29 1 .0020089592946889 -.9999979820
3924 -4394363762136985e-29 0 141 224 215 232 232 219 0 141 232 221 224 224 219 0
 137 221 1751 0 1 217 233 234 +219 235 0 ?0 133 233 1753 0 212 221 236 0 +236 .1
491999999999986 .04445000000142455 .0571500000000015 -.0508000000000013 .0444500
0000142455 .0571500000000015 0 .2 0 141 234 217 234 234 221 0 134 235 0 0 0 0 0
 0 +237 238 0 136 237 1 2 2 2 5 FFF1 239 240 241 0 135 238 1 0 0 45 4 239 .2 0 .
2 -.0571500000000025 0 127 2 240 2 2 0 128 2 241 0 1 0 16 212 1647 0 ?242 105 10
2 233 0 0 1 0 30 236 1754 0 1 233 243 244 +.1491999999999986 .04445000000142455
 .0571500000000015 -1 -459911361788299e-30 0 0 133 243 1757 0 102 236 245 0 +245
 .1491999999999926 -.04445 .0571499999999974 -.0508000000000076 -.04445 .0571499
999999974 0 .2 0 141 244 233 244 244 236 0 16 102 1650 0 ?246 212 93 243 0 0 1 0
 30 245 1758 0 1 243 247 248 +.1491999999999926 -.04445 .0571499999999974 -1 -45
9911361788299e-30 0 0 133 247 1763 0 52 245 249 0 +249 -.0508000000000016 -.0444
50000000002 .0571500000000041 -.0508000000000016 -.044450000000002 -975358682708
815e-30 0 1 0 141 248 243 248 248 245 0 17 52 0 92 95 246 50 250 211 247 97 +0 1
37 249 1764 0 1 247 23 251 +25 252 0 ?0 133 23 1768 0 95 249 7 0 +7 -.0508000000
000016 -.044450000000002 -975358682708815e-30 -.0508000000000016 -.0444500000000
02 -.0571500000000018 0 1 0 141 251 247 251 251 249 0 50 25 1699 0 96 253 223 25
4 +.1491999999999986 -.0444500000000019 -975358682708815e-30 -459911361788299e-3
0 1 0 1 459911361788299e-30 0 0 134 252 0 0 0 0 0 0 +255 256 0 136 255 1 2 2 2 5
 FFF1 257 258 259 0 135 256 1 0 0 45 4 257 -.2 -.0571500000000051 -.2 0 0 127 2
 258 2 2 0 128 2 259 0 1 0 14 96 1685 260 ?86 231 92 5 25 -0 0 86 231 29 0 50 25
3 1701 0 86 0 25 0 +.1492 -.0444499999999973 -.0571499999999979 -1 -370139633664
7365e-31 0 -3701396336647365e-31 1 0 0 141 254 249 261 261 25 0 141 261 7 254 25
4 25 0 14 86 1689 262 ?0 96 81 5 253 -0 0 0 96 29 0 81 1 262 1799 263 86 0 0 260
 0 264 0 13 29 1480 0 0 0 0 0 0 9 17 0 80 255 1 263 0 265 8001 0 0 0 0 3 5 0 0 0
 FFFFTFTFFFFFFF2 0 81 1 260 1798 263 96 0 0 266 262 267 0 83 255 3 264 .7176471
 .8117647 .7647059 0 81 1 266 1797 263 231 0 0 230 260 268 0 83 3 267 .7176471 .
8117647 .7647059 0 14 231 1682 266 ?96 222 269 5 223 -0 0 96 222 29 0 81 1 230 1
796 263 222 0 0 270 266 271 0 83 3 268 .7176471 .8117647 .7647059 0 81 1 270 179
5 263 104 0 0 272 230 273 0 83 3 271 .7176471 .8117647 .7647059 0 14 104 1675 27
0 ?222 274 100 5 188 -0 0 222 19 29 0 81 1 272 1794 263 274 275 0 276 270 277 0
 83 3 273 .7176471 .8117647 .7647059 0 14 274 464 272 ?104 187 278 5 20 +0 0 187
 186 29 0 81 1 275 1793 279 274 0 272 280 0 281 0 81 1 276 1792 263 187 280 0 28
2 272 283 0 83 3 277 .7176471 .8117647 .7647059 0 14 187 483 276 ?274 186 284 5
 175 +0 0 19 274 29 0 81 1 280 1791 279 187 0 276 285 275 286 0 81 1 282 1790 26
3 186 285 0 287 276 288 0 83 3 283 .7176471 .8117647 .7647059 0 14 186 451 282 ?
187 19 34 5 176 -0 0 274 17 29 0 81 1 285 1789 279 186 0 282 289 280 290 0 81 1
 287 1788 263 19 289 0 185 282 291 0 83 3 288 .7176471 .8117647 .7647059 0 14 19
 503 287 ?186 17 292 5 6 +0 0 104 187 29 0 81 1 289 1787 279 19 0 287 293 285 29
4 0 81 1 185 1786 263 17 293 0 0 287 295 0 83 3 291 .7176471 .8117647 .7647059 0
 81 1 293 1785 279 17 0 185 0 289 296 0 83 3 295 .7176471 .8117647 .7647059 0 80
 1 279 297 298 8015 0 0 0 0 3 5 0 0 0 FFFFTFFFFFFFFF2 0 83 1 296 0 0 79 255 21 2
98 SDL/TYSA_TRANSLUCENCY0 83 1 294 0 0 15 292 507 0 37 19 0 0 17 37 0 292 169 29
9 27 33 38 0 0 +0 17 169 0 292 99 37 63 166 300 0 0 +0 17 299 0 292 37 99 11 30
 10 0 0 -0 16 38 702 0 ?37 31 300 301 0 0 1 0 16 31 701 0 ?39 10 38 302 0 0 1 0
 16 300 703 0 ?169 38 303 304 0 0 1 0 30 301 935 0 38 302 304 0 +-1.8796 1449632
081040874e-27 -.587375 -33024099371727e-29 1 438533757918247e-28 0 30 302 936 0
 31 305 301 0 +-1.8796 -.587374999998577 -2885257781576445e-29 -880376921899417e
-31 4385351090515665e-29 -1 0 133 304 934 0 300 301 306 0 +306 -1.8796 .58737500
000145 -.587374999999977 -.0508000000000013 .04445000000142695 -.057150000000001
 0 1 0 134 306 933 0 1 304 307 308 +309 310 0 30 307 932 0 303 306 311 0 --1.879
6 .587375000001423 226641753956816e-28 -880376921899417e-31 4385351090515665e-29
 -1 0 141 308 304 308 308 306 0 136 309 5 48 3 44 6 FFF1 312 313 314 0 135 310 2
 0 0 45 144 312 -1.8796 .58737500000145 -.587374999999977 -1.86828419737047 .587
3705613432 -.587367682167405 -1.8456515432262 .587378720612441 -.587370206317707
 -1.81712544558229 .587277274407749 -.587265088979706 -1.77693621325916 .5867958
34612965 -.58678778859311 -1.73088368372393 .585088421967239 -.585112907120881 -
1.690741347930165 .582538812949242 -.582616939309833 -1.650525302246765 .5789545
76384774 -.579110793623627 -1.610466861195925 .57397579239214 -.574242915148626
 -1.57609959700245 .568650010794728 -.569037115315005 -1.535890585388335 .561129
467701866 -.561687343432322 -1.495937310605024 .552038426729107 -.55280417031795
8 -1.461613218003738 .543080767448782 -.544052199810286 -1.427412651995996 .5330
24009417666 -.534227151074726 -1.38739848782595 .5199486902248 -.521453930851892
 -1.353008390199784 .507606446149341 -.509397519322268 -1.312775060193772 .49195
4025281764 -.494108312073371 -1.27283613262635 .475023703981832 -.47757168328570
5 -1.233131134527866 .456980514165959 -.459948808896313 -1.193106944122826 .4378
739722002495 -.441287942974572 -1.153294003662576 .4178864539831755 -.4217673360
953185 -1.119081840541562 .4001221818812545 -.4044184994998605 -1.07334526560071
2 .375736829535555 -.3806040135420685 -1.016383193637786 .3445042797502245 -.350
1036338621365 -.959620034073787 .3128184781064985 -.319161695748909 -.8973135505
89048 .278032471993117 -.285193599338739 -.834591279874582 .243905335644987 -.25
1870142933915 -.782959744434345 .21691502374218 -.225516241789571 -.737276936349
613 .193977990020792 -.2031205297907985 -.697248242218232 .1748689777200435 -.18
44629188267155 -.663007296930626 .159308084073527 -.169269891337206 -.6231793514
79251 .142229702443325 -.152595568711272 -.583082396660656 .1263983422015438 -.1
371391314212812 -.543349132447263 .111889031502197 -.12297373149415 -.5033560936
31693 .0987790507565531 -.1101748396453226 -.463062675611228 .0871947846875223 -
.0988658062694196 -.4286355444894455 .0784394591568405 -.0903187533570025 -.3885
66210122678 .0696031923071639 -.0816929889574286 -.354308040022539 .063193173857
7959 -.075435947909501 -.3199381854561345 .0578653414660144 -.0702355676969769 -
.2798927676406725 .0528853757351809 -.0653751236145595 -.234023303229922 .048794
783258991 -.061383324756631 -.1938438859644165 .0464406686002615 -.0590867247924
877 -.1478030605362242 .04492212850761645 -.0576062492426046 -.10761343365757 .0
4453857759895155 -.0572336854389395 -.0791490238092743 .04443623104593135 -.0571
35151420275 -.0621093634551347 .04447190933571535 -.0571708241942949 -.050800000
0000013 .04445000000142695 -.057150000000001 0 127 44 313 6 1 1 1 1 1 1 1 1 1 1
 1 1 1 1 1 1 1 1 1 1 1 1 1 1 1 1 1 1 1 1 1 1 1 1 1 1 1 1 1 1 1 1 6 0 128 44 314
 0 .0283224314460391 .0563067839310476 .0702672212504179 .0982719505355781 .1123
697625062348 .1265626994846806 .1553094987946525 .169900327744743 .1846587160049
62 .2147230338582445 .2300504577225915 .2455862866558015 .261332697472228 .29345
76657579445 .309833326436095 .343175471990701 .3601214055585635 .377234112727982
 .411889752323691 .4293940369539125 .446988332894073 .500076014394818 .553122010
316972 .588159526339897 .622747893719456 .639830243743563 .656750220195756 .6900
57846838567 .70642589116436 .722591901899385 .754308268807434 .769858595657911 .
800352702243245 .815312486902727 .830094382674432 .844709029098288 .873498172159
928 .887710020472533 .901823177253102 .92984009934775 .957751894787258 .97174240
1906696 1 0 16 303 704 0 ?47 300 315 307 0 0 1 0 133 311 931 0 315 307 316 0 +31
6 -.0508 .04445000000000255 -.0571499999999939 -.0508 -.0444499999999975 -.05714
99999999978 .1016 .0127 0 16 315 705 0 ?99 303 168 311 0 0 1 0 30 316 930 0 1 31
1 317 318 --.0508 -.0571499999999975 -.0571499999999984 -1602385165880165e-31 1
 438533757918247e-28 0 133 317 929 0 250 316 201 0 +201 -.0508000000000014 -.044
4499999985754 43330216213066e-28 -.0508000000000014 -.0444499999985778 .05714999
99999952 0 1 0 141 318 311 318 318 316 0 17 250 0 278 319 97 54 52 211 317 0 -0
 137 201 928 0 1 317 198 320 +20 321 0 ?0 141 320 317 320 320 201 0 124 20 792 0
 274 176 6 322 +323 324 0 134 321 0 0 0 0 0 0 +325 326 0 136 325 1 2 2 2 5 FFF1
 327 328 329 0 135 326 1 0 0 45 4 327 .49999999999992 1 0 1 0 127 2 328 2 2 0 12
8 2 329 0 1 0 141 322 174 330 330 20 0 126 323 FF1 5 2 48 5 6 2 44 FFF9 3 331 33
2 333 334 335 0 125 324 0 1 0 1 0 1 0 1 2 BBBBBBBB????0 0 0 0 0 45 288 331 -1.87
96 -.587374999998602 .587374999999971 -1.86828419737048 -.587370561340351 .58736
7682167396 -1.845651543226125 -.587378720609593 .587370206317703 -1.817125445582
13 -.5872772744049 .587265088979699 -1.77693621325874 -.586795834610117 .5867877
88593103 -1.730883683723605 -.585088421964393 .585112907120876 -1.69074134793001
5 -.582538812946394 .582616939309828 -1.650525302246805 -.578954576381926 .57911
0793623618 -1.610466861195995 -.573975792389291 .574242915148624 -1.576099597002
515 -.56865001079188 .569037115314992 -1.535890585388355 -.561129467699018 .5616
87343432324 -1.49593731060503 -.552038426726258 .552804170317946 -1.461613218003
738 -.543080767445935 .544052199810285 -1.427412651995994 -.533024009414817 .534
227151074716 -1.38739848782596 -.519948690221951 .52145393085189 -1.353008390199
754 -.507606446146492 .509397519322258 -1.312775060193684 -.491954025278916 .494
108312073369 -1.272836132625988 -.475023703978983 .477571683285695 -1.2331311345
27422 -.456980514163111 .45994880889631 -1.193106944122646 -.437873972197401 .44
1287942974562 -1.153294003663476 -.417886453980328 .421767336095316 -1.119081840
543414 -.400122181878405 .4044184994998515 -1.07334526560329 -.3757368295327075
 .3806040135420645 -1.016383193639162 -.3445042797473745 .3501036338621275 -.959
620034072988 -.31281847810365 .319161695748906 -.897313550588694 -.2780324719902
69 .2851935993387305 -.834591279874535 -.2439053356421375 .251870142933911 -.782
959744434352 -.216915023739332 .225516241789563 -.737276936349606 -.193977990017
9425 .2031205297907935 -.697248242218236 -.174868977717195 .1844629188267085 -.6
63007296930627 -.159308084070678 .169269891337201 -.623179351479245 -.1422297024
40476 .1525955687112655 -.583082396660663 -.1263983421986952 .137139131421276 -.
543349132447255 -.111889031499348 .1229737314941436 -.5033560936317 -.0987790507
537041 .1101748396453172 -.463062675611223 -.0871947846846732 .0988658062694134
 -.428635544489445 -.0784394591539918 .0903187533569968 -.388566210122677 -.0696
031923043146 .0816929889574229 -.354308040022544 -.0631931738549475 .07543594790
94948 -.319938185456125 -.0578653414631646 .0702355676969716 -.2798927676406845
 -.0528853757323327 .0653751236145529 -.234023303229917 -.0487947832561407 .0613
833247566262 -.193843885964092 -.0464406685974143 .0590867247924803 -.1478030605
34269 -.04492212850476395 .0576062492426011 -.1076134336526988 -.044538577596106
7 .057233685438931 -.0791490238061057 -.0444362310430765 .0571351514202725 -.062
1093634527443 -.04447190933287315 .0571708241942852 -.0508000000000014 -.0444499
999985778 .0571499999999952 -1.8796 -.58737499999855 -.587375000000029 -1.868284
197370475 -.587370561340304 -.587367682167466 -1.84565154322616 -.58737872060953
6 -.587370206317748 -1.81712544558221 -.587277274404854 -.587265088979769 -1.776
93621325895 -.58679583461006 -.586787788593153 -1.73088368372377 -.5850884219643
44 -.585112907120937 -1.69074134793009 -.58253881294634 -.582616939309882 -1.650
525302246785 -.578954576381877 -.579110793623678 -1.61046686119596 -.57397579238
924 -.574242915148677 -1.57609959700248 -.568650010791829 -.569037115315053 -1.5
3589058538835 -.561129467698968 -.561687343432375 -1.495937310605024 -.552038426
726211 -.552804170318005 -1.461613218003738 -.543080767445884 -.544052199810335
 -1.427412651995994 -.533024009414772 -.534227151074773 -1.387398487825954 -.519
948690221904 -.521453930851938 -1.35300839019977 -.50760644614645 -.509397519322
313 -1.31277506019373 -.49195402527887 -.494108312073414 -1.272836132626168 -.47
5023703978944 -.477571683285748 -1.233131134527644 -.456980514163068 -.459948808
896352 -1.193106944122736 -.437873972197364 -.44128794297461 -1.153294003663026
 -.4178864539802895 -.4217673360953555 -1.119081840542488 -.400122181878371 -.40
4418499499895 -1.073345265602002 -.375736829532673 -.3806040135421015 -1.0163831
93638472 -.344504279747346 -.350103633862166 -.959620034073388 -.312818478103620
5 -.3191616957489365 -.897313550588874 -.278032471990246 -.2851935993387635 -.83
4591279874551 -.243905335642114 -.2518701429339365 -.782959744434356 -.216915023
739313 -.2255162417895895 -.737276936349602 -.193977990017924 -.203120529790816
 -.697248242218239 -.17486897771718 -.18446291882673 -.663007296930623 -.1593080
84070663 -.169269891337221 -.62317935147925 -.142229702440463 -.1525955687112835
 -.583082396660659 -.1263983421986832 -.137139131421293 -.543349132447259 -.1118
890314993372 -.122973731494159 -.503356093631698 -.0987790507536949 -.1101748396
453322 -.463062675611223 -.0871947846846644 -.0988658062694265 -.428635544489449
 -.0784394591539839 -.0903187533570098 -.388566210122674 -.0696031923043075 -.08
16929889574345 -.354308040022544 -.0631931738549409 -.0754359479095066 -.3199381
8545613 -.0578653414631586 -.070235567696982 -.2798927676406745 -.05288537573232
71 -.0653751236145641 -.234023303229928 -.0487947832561353 -.0613833247566355 -.
193843885964238 -.0464406685974092 -.0590867247924915 -.147803060535274 -.044922
128504759 -.0576062492426089 -.1076134336550962 -.0445385775961016 -.05723368543
8943 -.0791490238077406 -.0444362310430716 -.0571351514202793 -.0621093634538778
 -.04447190933286815 -.0571708241942981 -.0508000000000014 -.0444499999985729 -.
0571500000000048 0 127 2 332 2 2 0 127 44 333 6 1 1 1 1 1 1 1 1 1 1 1 1 1 1 1 1
 1 1 1 1 1 1 1 1 1 1 1 1 1 1 1 1 1 1 1 1 1 1 1 1 1 1 6 0 128 2 334 0 1 0 128 44
 335 0 .0283224314460391 .0563067839310476 .0702672212504179 .0982719505355781 .
1123697625062348 .1265626994846806 .1553094987946525 .169900327744743 .184658716
004962 .2147230338582445 .2300504577225915 .2455862866558015 .261332697472228 .2
934576657579445 .309833326436095 .343175471990701 .3601214055585635 .37723411272
7982 .411889752323691 .4293940369539125 .446988332894073 .500076014394818 .55312
2010316972 .588159526339897 .622747893719456 .639830243743563 .656750220195756 .
690057846838567 .70642589116436 .722591901899385 .754308268807434 .7698585956579
11 .800352702243245 .815312486902727 .830094382674432 .844709029098288 .87349817
2159928 .887710020472533 .901823177253102 .92984009934775 .957751894787258 .9717
42401906696 1 0 137 174 939 0 1 170 32 336 +20 337 0 ?0 141 330 201 322 322 20 0
 133 32 938 0 10 174 305 0 +305 -1.8796 -.58737499999855 -.587375000000029 -.050
8000000000014 -.0444499999985729 -.0571500000000048 0 1 0 141 336 170 336 336 17
4 0 134 337 0 0 0 0 0 0 +338 339 0 136 338 1 2 2 2 5 FFF1 340 341 342 0 135 339
 2 0 0 45 4 340 1 1 0 1 0 127 2 341 2 2 0 128 2 342 0 1 0 134 305 937 0 1 32 302
 343 +344 345 0 141 343 32 343 343 305 0 136 344 5 48 3 44 6 FFF1 346 347 348 0
 135 345 2 0 0 45 144 346 -1.8796 -.58737499999855 -.587375000000029 -1.86828419
7370475 -.587370561340304 -.587367682167466 -1.84565154322616 -.587378720609536
 -.587370206317748 -1.81712544558221 -.587277274404854 -.587265088979769 -1.7769
3621325895 -.58679583461006 -.586787788593153 -1.73088368372377 -.58508842196434
4 -.585112907120937 -1.69074134793009 -.58253881294634 -.582616939309882 -1.6505
25302246785 -.578954576381877 -.579110793623678 -1.61046686119596 -.573975792389
24 -.574242915148677 -1.57609959700248 -.568650010791829 -.569037115315053 -1.53
589058538835 -.561129467698968 -.561687343432375 -1.495937310605024 -.5520384267
26211 -.552804170318005 -1.461613218003738 -.543080767445884 -.544052199810335 -
1.427412651995994 -.533024009414772 -.534227151074773 -1.387398487825954 -.51994
8690221904 -.521453930851938 -1.35300839019977 -.50760644614645 -.50939751932231
3 -1.31277506019373 -.49195402527887 -.494108312073414 -1.272836132626168 -.4750
23703978944 -.477571683285748 -1.233131134527644 -.456980514163068 -.45994880889
6352 -1.193106944122736 -.437873972197364 -.44128794297461 -1.153294003663026 -.
4178864539802895 -.4217673360953555 -1.119081840542488 -.400122181878371 -.40441
8499499895 -1.073345265602002 -.375736829532673 -.3806040135421015 -1.0163831936
38472 -.344504279747346 -.350103633862166 -.959620034073388 -.3128184781036205 -
.3191616957489365 -.897313550588874 -.278032471990246 -.2851935993387635 -.83459
1279874551 -.243905335642114 -.2518701429339365 -.782959744434356 -.216915023739
313 -.2255162417895895 -.737276936349602 -.193977990017924 -.203120529790816 -.6
97248242218239 -.17486897771718 -.18446291882673 -.663007296930623 -.15930808407
0663 -.169269891337221 -.62317935147925 -.142229702440463 -.1525955687112835 -.5
83082396660659 -.1263983421986832 -.137139131421293 -.543349132447259 -.11188903
14993372 -.122973731494159 -.503356093631698 -.0987790507536949 -.11017483964533
22 -.463062675611223 -.0871947846846644 -.0988658062694265 -.428635544489449 -.0
784394591539839 -.0903187533570098 -.388566210122674 -.0696031923043075 -.081692
9889574345 -.354308040022544 -.0631931738549409 -.0754359479095066 -.31993818545
613 -.0578653414631586 -.070235567696982 -.2798927676406745 -.0528853757323271 -
.0653751236145641 -.234023303229928 -.0487947832561353 -.0613833247566355 -.1938
43885964238 -.0464406685974092 -.0590867247924915 -.147803060535274 -.0449221285
04759 -.0576062492426089 -.1076134336550962 -.0445385775961016 -.057233685438943
 -.0791490238077406 -.0444362310430716 -.0571351514202793 -.0621093634538778 -.0
4447190933286815 -.0571708241942981 -.0508000000000014 -.0444499999985729 -.0571
500000000048 0 127 44 347 6 1 1 1 1 1 1 1 1 1 1 1 1 1 1 1 1 1 1 1 1 1 1 1 1 1 1
 1 1 1 1 1 1 1 1 1 1 1 1 1 1 1 1 6 0 128 44 348 0 .0283224314460391 .05630678393
10476 .0702672212504179 .0982719505355781 .1123697625062348 .1265626994846806 .1
553094987946525 .169900327744743 .184658716004962 .2147230338582445 .23005045772
25915 .2455862866558015 .261332697472228 .2934576657579445 .309833326436095 .343
175471990701 .3601214055585635 .377234112727982 .411889752323691 .42939403695391
25 .446988332894073 .500076014394818 .553122010316972 .588159526339897 .62274789
3719456 .639830243743563 .656750220195756 .690057846838567 .70642589116436 .7225
91901899385 .754308268807434 .769858595657911 .800352702243245 .815312486902727
 .830094382674432 .844709029098288 .873498172159928 .887710020472533 .9018231772
53102 .92984009934775 .957751894787258 .971742401906696 1 0 15 278 468 0 97 274
 0 0 17 319 0 278 39 250 44 137 132 0 349 -0 17 97 0 278 250 30 50 95 98 170 0 -
0 16 211 713 0 508e-9 52 160 105 0 0 0 1 0 16 160 712 0 508e-9 59 151 211 0 0 0
 1 0 17 59 0 216 350 62 57 167 160 217 242 +0 15 216 1681 0 59 222 0 0 17 350 0
 216 351 59 71 242 212 0 352 -0 17 167 0 165 163 150 60 59 160 198 0 -0 17 242 0
 269 56 352 57 350 212 0 150 +0 15 269 1684 0 56 231 0 0 17 56 0 269 353 242 54
 354 151 0 246 +0 17 352 0 269 242 353 71 70 119 0 0 -0 17 150 0 165 167 47 57 3
55 148 0 354 +0 15 165 450 0 47 17 0 0 17 47 0 165 150 166 45 36 303 0 147 +0 17
 355 0 284 349 354 45 150 148 0 0 -0 17 354 0 284 355 137 57 56 151 0 0 -0 15 28
4 487 0 349 187 0 0 17 137 0 284 354 349 54 319 132 0 250 +0 17 349 0 284 137 35
5 44 147 138 0 0 -0 17 147 0 34 36 35 45 349 138 0 355 +0 15 34 455 0 35 186 0 0
 17 36 0 34 33 147 27 47 303 0 166 -0 17 35 0 34 147 33 44 39 31 0 319 -0 17 39
 0 278 30 319 11 35 31 0 299 +0 17 30 0 278 97 39 40 299 10 0 0 +0 17 166 0 165
 47 163 27 169 300 0 37 -0 17 353 0 269 352 56 68 246 102 0 90 -0 17 70 0 81 67
 73 68 352 119 0 353 +0 17 73 0 81 70 76 71 351 108 0 350 +0 17 76 0 81 73 82 74
 79 106 0 351 +0 17 351 0 216 79 350 74 73 108 0 0 -0 17 79 0 216 65 351 77 76 1
06 0 82 -0 17 65 0 216 62 79 63 89 105 0 101 +0 17 101 0 100 89 43 63 99 315 0 1
63 -0 17 99 0 292 299 169 40 101 315 0 30 +0 17 246 0 92 52 90 54 353 102 0 137
 +0 17 90 0 92 246 83 68 67 91 0 0 -0 16 98 707 0 508e-9 95 168 132 0 0 0 1 0 16
 168 706 0 508e-9 62 315 98 0 0 0 1 0 83 1 290 0 0 83 1 286 0 0 83 1 281 0 0 79
 15 265 SDL/TYSA_COLOUR0 126 189 FF1 5 2 48 5 6 2 44 FFF9 3 356 357 358 359 360
 0 125 190 0 1 0 1 0 1 0 1 2 BBBBBBBB????0 0 0 0 0 45 288 356 -1.87960000000008
 -.587374999998577 .587374999999764 -1.868284197370555 -.58737056134033 .5873676
82167202 -1.84565154322624 -.587378720609563 .587370206317487 -1.81712544558229
 -.58727727440488 .587265088979512 -1.776936213259025 -.586795834610086 .5867877
88592901 -1.730883683723845 -.58508842196437 .585112907120692 -1.690741347930165
 -.582538812946366 .582616939309643 -1.65052530224686 -.578954576381903 .5791107
93623444 -1.610466861196035 -.573975792389265 .574242915148448 -1.57609959700255
5 -.568650010791855 .569037115314828 -1.535890585388425 -.561129467698993 .56168
7343432155 -1.4959373106051 -.552038426726235 .552804170317792 -1.46161321800381
2 -.543080767445909 .544052199810126 -1.427412651996064 -.533024009414796 .53422
715107457 -1.387398487826024 -.519948690221928 .52145393085174 -1.35300839019983
4 -.507606446146473 .509397519322121 -1.312775060193794 -.491954025278892 .49410
8312073227 -1.272836132626228 -.475023703978966 .477571683285567 -1.233131134527
704 -.456980514163088 .459948808896177 -1.193106944122792 -.437873972197384 .441
287942974442 -1.153294003663082 -.417886453980308 .4217673360951935 -1.119081840
54254 -.400122181878389 .404418499499738 -1.073345265602052 -.37573682953269 .38
06040135419515 -1.016383193638516 -.344504279747362 .350103633862025 -.959620034
07343 -.3128184781036345 .3191616957488045 -.897313550588914 -.2780324719902585
 .2851935993386415 -.834591279874583 -.2439053356421255 .251870142933824 -.78295
9744434386 -.216915023739323 .225516241789485 -.737276936349629 -.19397799001793
25 .2031205297907185 -.697248242218263 -.174868977717188 .1844629188266385 -.663
007296930645 -.15930808407067 .1692698913371345 -.62317935147927 -.1422297024404
698 .1525955687112035 -.583082396660677 -.1263983421986892 .1371391314212186 -.5
43349132447275 -.1118890314993426 .122973731494091 -.503356093631713 -.098779050
7536997 .11017483964527 -.463062675611236 -.0871947846846688 .0988658062693699 -
.428635544489462 -.078439459153988 .0903187533569581 -.388566210122685 -.0696031
923043112 .0816929889573885 -.354308040022554 -.0631931738549443 .07543594790946
55 -.31993818545614 -.0578653414631618 .0702355676969456 -.2798927676406835 -.05
288537573233 .0653751236145331 -.234023303229936 -.0487947832561379 .06138332475
66108 -.193843885964246 -.0464406685974118 .0590867247924722 -.1478030605352814
 -.0449221285047615 .0576062492425958 -.1076134336551032 -.0445385775961042 .057
2336854389352 -.0791490238077481 -.0444362310430741 .0571351514202752 -.06210936
34538853 -.04447190933287075 .0571708241942962 -.0508000000000089 -.044449999998
5755 .0571500000000041 -1.87960000000008 .587375000001424 .587374999999764 -1.86
828419737055 .587370561343173 .587367682167193 -1.84565154322628 .58737872061241
6 .587370206317498 -1.817125445582365 .587277274407722 .587265088979501 -1.77693
6213259235 .58679583461294 .58678778859291 -1.730883683724005 .585088421967213 .
585112907120688 -1.69074134793024 .582538812949215 .582616939309645 -1.650525302
24684 .578954576384748 .579110793623443 -1.610466861196 .573975792392114 .574242
915148447 -1.576099597002525 .568650010794702 .569037115314831 -1.53589058538841
 .561129467701841 .561687343432153 -1.495937310605094 .552038426729082 .55280417
0317793 -1.461613218003812 .543080767448758 .544052199810126 -1.427412651996066
 .533024009417642 .534227151074571 -1.38739848782602 .519948690224777 .521453930
851741 -1.35300839019985 .507606446149319 .50939751932212 -1.312775060193832 .49
1954025281743 .494108312073229 -1.27283613262641 .475023703981811 .4775716832855
67 -1.233131134527926 .456980514165938 .459948808896179 -1.193106944122884 .4378
73972200229 .441287942974443 -1.153294003662632 .417886453983157 .42176733609519
35 -1.119081840541614 .4001221818812375 .404418499499739 -1.073345265600762 .375
736829535538 .3806040135419515 -1.016383193637832 .3445042797502085 .35010363386
2026 -.95962003407383 .312818478106485 .319161695748805 -.897313550589086 .27803
2471993104 .285193599338642 -.834591279874616 .2439053356449755 .251870142933824
5 -.782959744434375 .2169150237421705 .2255162417894855 -.73727693634964 .193977
990020783 .203120529790718 -.697248242218256 .1748689777200355 .184462918826639
 -.663007296930648 .15930808407352 .169269891337134 -.623179351479271 .142229702
443318 .1525955687112045 -.583082396660675 .1263983422015378 .1371391314212182 -
.543349132447279 .1118890315021914 .122973731494092 -.503356093631708 .098779050
7565486 .110174839645269 -.463062675611241 .0871947846875178 .0988658062693708 -
.4286355444894575 .0784394591568365 .0903187533569578 -.388566210122689 .0696031
923071603 .0816929889573888 -.354308040022549 .0631931738577923 .075435947909465
4 -.319938185456143 .0578653414660114 .0702355676969457 -.2798927676406805 .0528
853757351781 .0653751236145333 -.23402330322993 .0487947832589883 .0613833247566
107 -.1938438859644245 .046440668600259 .0590867247924726 -.1478030605362322 .04
49221285076138 .0576062492425954 -.1076134336575774 .0445385775989491 .057233685
4389356 -.0791490238092818 .04443623104592895 .0571351514202749 -.06210936345514
22 .04447190933571275 .057170824194297 -.0508000000000088 .04445000000142455 .05
71500000000041 0 127 2 357 2 2 0 127 44 358 6 1 1 1 1 1 1 1 1 1 1 1 1 1 1 1 1 1
 1 1 1 1 1 1 1 1 1 1 1 1 1 1 1 1 1 1 1 1 1 1 1 1 1 6 0 128 2 359 0 1 0 128 44 36
0 0 .0283224314460391 .0563067839310476 .0702672212504179 .0982719505355781 .112
3697625062348 .1265626994846806 .1553094987946525 .169900327744743 .184658716004
962 .2147230338582445 .2300504577225915 .2455862866558015 .261332697472228 .2934
576657579445 .309833326436095 .343175471990701 .3601214055585635 .37723411272798
2 .411889752323691 .4293940369539125 .446988332894073 .500076014394818 .55312201
0316972 .588159526339897 .622747893719456 .639830243743563 .656750220195756 .690
057846838567 .70642589116436 .722591901899385 .754308268807434 .769858595657911
 .800352702243245 .815312486902727 .830094382674432 .844709029098288 .8734981721
59928 .887710020472533 .901823177253102 .92984009934775 .957751894787258 .971742
401906696 1 0 19 18 167 0 1 0 9 5 S0 141 24 23 24 24 7 0 134 26 0 0 0 0 0 0 +361
 362 0 136 361 1 2 2 2 5 FFF1 363 364 365 0 135 362 1 0 0 45 4 363 -.2 0 -.2 .05
71500000000009 0 127 2 364 2 2 0 128 2 365 0 1 0 126 21 FF1 5 2 48 5 6 2 44 FFF9
 3 366 367 368 369 370 0 125 22 0 1 0 1 0 1 0 1 2 BBBBBBBB????0 0 0 0 0 45 288 3
66 -1.8796 -.58737499999855 -.587375000000029 -1.868284197370475 -.5873705613403
04 -.587367682167466 -1.84565154322616 -.587378720609536 -.587370206317748 -1.81
712544558221 -.587277274404854 -.587265088979769 -1.77693621325895 -.58679583461
006 -.586787788593153 -1.73088368372377 -.585088421964344 -.585112907120937 -1.6
9074134793009 -.58253881294634 -.582616939309882 -1.650525302246785 -.5789545763
81877 -.579110793623678 -1.61046686119596 -.57397579238924 -.574242915148677 -1.
57609959700248 -.568650010791829 -.569037115315053 -1.53589058538835 -.561129467
698968 -.561687343432375 -1.495937310605024 -.552038426726211 -.552804170318005
 -1.461613218003738 -.543080767445884 -.544052199810335 -1.427412651995994 -.533
024009414772 -.534227151074773 -1.387398487825954 -.519948690221904 -.5214539308
51938 -1.35300839019977 -.50760644614645 -.509397519322313 -1.31277506019373 -.4
9195402527887 -.494108312073414 -1.272836132626168 -.475023703978944 -.477571683
285748 -1.233131134527644 -.456980514163068 -.459948808896352 -1.193106944122736
 -.437873972197364 -.44128794297461 -1.153294003663026 -.4178864539802895 -.4217
673360953555 -1.119081840542488 -.400122181878371 -.404418499499895 -1.073345265
602002 -.375736829532673 -.3806040135421015 -1.016383193638472 -.344504279747346
 -.350103633862166 -.959620034073388 -.3128184781036205 -.3191616957489365 -.897
313550588874 -.278032471990246 -.2851935993387635 -.834591279874551 -.2439053356
42114 -.2518701429339365 -.782959744434356 -.216915023739313 -.2255162417895895
 -.737276936349602 -.193977990017924 -.203120529790816 -.697248242218239 -.17486
897771718 -.18446291882673 -.663007296930623 -.159308084070663 -.169269891337221
 -.62317935147925 -.142229702440463 -.1525955687112835 -.583082396660659 -.12639
83421986832 -.137139131421293 -.543349132447259 -.1118890314993372 -.12297373149
4159 -.503356093631698 -.0987790507536949 -.1101748396453322 -.463062675611223 -
.0871947846846644 -.0988658062694265 -.428635544489449 -.0784394591539839 -.0903
187533570098 -.388566210122674 -.0696031923043075 -.0816929889574345 -.354308040
022544 -.0631931738549409 -.0754359479095066 -.31993818545613 -.0578653414631586
 -.070235567696982 -.2798927676406745 -.0528853757323271 -.0653751236145641 -.23
4023303229928 -.0487947832561353 -.0613833247566355 -.193843885964238 -.04644066
85974092 -.0590867247924915 -.147803060535274 -.044922128504759 -.05760624924260
89 -.1076134336550962 -.0445385775961016 -.057233685438943 -.0791490238077406 -.
0444362310430716 -.0571351514202793 -.0621093634538778 -.04447190933286815 -.057
1708241942981 -.0508000000000014 -.0444499999985729 -.0571500000000048 -1.8796 .
58737500000145 -.587374999999977 -1.86828419737047 .5873705613432 -.587367682167
405 -1.8456515432262 .587378720612441 -.587370206317707 -1.81712544558229 .58727
7274407749 -.587265088979706 -1.77693621325916 .586795834612965 -.58678778859311
 -1.73088368372393 .585088421967239 -.585112907120881 -1.690741347930165 .582538
812949242 -.582616939309833 -1.650525302246765 .578954576384774 -.57911079362362
7 -1.610466861195925 .57397579239214 -.574242915148626 -1.57609959700245 .568650
010794728 -.569037115315005 -1.535890585388335 .561129467701866 -.56168734343232
2 -1.495937310605024 .552038426729107 -.552804170317958 -1.461613218003738 .5430
80767448782 -.544052199810286 -1.427412651995996 .533024009417666 -.534227151074
726 -1.38739848782595 .5199486902248 -.521453930851892 -1.353008390199784 .50760
6446149341 -.509397519322268 -1.312775060193772 .491954025281764 -.4941083120733
71 -1.27283613262635 .475023703981832 -.477571683285705 -1.233131134527866 .4569
80514165959 -.459948808896313 -1.193106944122826 .4378739722002495 -.44128794297
4572 -1.153294003662576 .4178864539831755 -.4217673360953185 -1.119081840541562
 .4001221818812545 -.4044184994998605 -1.073345265600712 .375736829535555 -.3806
04013542068 -1.016383193637786 .3445042797502245 -.3501036338621365 -.9596200340
73787 .3128184781064985 -.319161695748909 -.897313550589048 .278032471993117 -.2
85193599338739 -.834591279874582 .243905335644987 -.251870142933915 -.7829597444
34345 .21691502374218 -.225516241789571 -.737276936349613 .193977990020792 -.203
1205297907985 -.697248242218232 .1748689777200435 -.1844629188267155 -.663007296
930626 .159308084073527 -.169269891337206 -.623179351479251 .142229702443325 -.1
52595568711272 -.583082396660657 .1263983422015438 -.1371391314212812 -.54334913
2447263 .111889031502197 -.12297373149415 -.503356093631693 .0987790507565531 -.
1101748396453226 -.463062675611228 .0871947846875223 -.0988658062694196 -.428635
5444894455 .0784394591568405 -.0903187533570025 -.388566210122678 .0696031923071
639 -.0816929889574286 -.354308040022539 .0631931738577959 -.075435947909501 -.3
199381854561345 .0578653414660144 -.0702355676969769 -.2798927676406725 .0528853
757351809 -.0653751236145595 -.234023303229922 .048794783258991 -.06138332475663
1 -.1938438859644165 .0464406686002615 -.0590867247924877 -.1478030605362242 .04
492212850761645 -.0576062492426046 -.10761343365757 .04453857759895155 -.0572336
854389395 -.0791490238092743 .04443623104593135 -.057135151420275 -.062109363455
1347 .04447190933571535 -.0571708241942949 -.0508000000000013 .04445000000142695
 -.057150000000001 0 127 2 367 2 2 0 127 44 368 6 1 1 1 1 1 1 1 1 1 1 1 1 1 1 1
 1 1 1 1 1 1 1 1 1 1 1 1 1 1 1 1 1 1 1 1 1 1 1 1 1 1 1 6 0 128 2 369 0 1 0 128 4
4 370 0 .0283224314460391 .0563067839310476 .0702672212504179 .0982719505355781
 .1123697625062348 .1265626994846806 .1553094987946525 .169900327744743 .1846587
16004962 .2147230338582445 .2300504577225915 .2455862866558015 .261332697472228
 .2934576657579445 .309833326436095 .343175471990701 .3601214055585635 .37723411
2727982 .411889752323691 .4293940369539125 .446988332894073 .500076014394818 .55
3122010316972 .588159526339897 .622747893719456 .639830243743563 .65675022019575
6 .690057846838567 .70642589116436 .722591901899385 .754308268807434 .7698585956
57911 .800352702243245 .815312486902727 .830094382674432 .844709029098288 .87349
8172159928 .887710020472533 .901823177253102 .92984009934775 .957751894787258 .9
71742401906696 1 0 74 4 CI16 index_map_offset0 0 1 dCCZ20 16 4 0 0 262 13 2 275
 0 0 0 0 0 0 0 0 0 0 0 0 0 0 0 0 0 81 1 13 1354 371 1 0 2 0 0 372 0 80 1 371 373
 374 8017 0 0 0 0 0 0 0 0 0 TTTTTTTTTTTTTF3 0 84 255 15 372 join_FCtoCavity0 79
 13 374 SDL/TYSA_NAME0 80 2 12 375 376 8004 0 0 0 0 3 5 0 0 0 FFTFFFFFFFFFFF2 3
 0 83 1 14 7830.64 0 84 8 15 Kg/Cu M 0 79 16 376 SDL/TYSA_DENSITY0 1 0 
